REM DIRINDEX 1\2\5,1\2\6,1\2\7,1\2\8,1\3\9,1\3\10,1\3\11,1\4\12,1\4\13,1\4\14,1\4\15,1\4\16
REM DIRNAME folder01,folder02,folder03,folder04,folder05,folder06,folder07,folder08,folder09,folder10,folder11,folder12,folder13,folder14,folder15,folder16
TITLE ""
FILE "1200_2_sec05_1469_1483.mp3" MP3
  TRACK 01 AUDIO
    TITLE "0:"
    INDEX 01 00:00:00
  TRACK 02 AUDIO
    TITLE "10:cjc034_03053"
    INDEX 01 00:00:15
  TRACK 03 AUDIO
    TITLE "0:"
    INDEX 01 00:02:55
  TRACK 04 AUDIO
    TITLE "9:cjc034_03054"
    INDEX 01 00:02:59
  TRACK 05 AUDIO
    TITLE "0:"
    INDEX 01 00:04:13
  TRACK 06 AUDIO
    TITLE "10:cjc034_03055"
    INDEX 01 00:04:70
  TRACK 07 AUDIO
    TITLE "0:"
    INDEX 01 00:07:58
  TRACK 08 AUDIO
    TITLE "9:cjc034_03056"
    INDEX 01 00:07:60
  TRACK 09 AUDIO
    TITLE "0:"
    INDEX 01 00:09:12
  TRACK 10 AUDIO
    TITLE "10:cjc034_03057"
    INDEX 01 00:09:69
  TRACK 11 AUDIO
    TITLE "0:"
    INDEX 01 00:11:25
  TRACK 12 AUDIO
    TITLE "9:cjc034_03058"
    INDEX 01 00:11:31
  TRACK 13 AUDIO
    TITLE "0:"
    INDEX 01 00:12:61
  TRACK 14 AUDIO
    TITLE "10:cjc034_03059"
    INDEX 01 00:13:43
  TRACK 15 AUDIO
    TITLE "0:"
    INDEX 01 00:15:01
  TRACK 16 AUDIO
    TITLE "9:cjc034_03060"
    INDEX 01 00:15:05
  TRACK 17 AUDIO
    TITLE "0:"
    INDEX 01 00:16:26
  TRACK 18 AUDIO
    TITLE "10:cjc034_03061"
    INDEX 01 00:17:06
  TRACK 19 AUDIO
    TITLE "0:"
    INDEX 01 00:18:25
  TRACK 20 AUDIO
    TITLE "9:cjc034_03062"
    INDEX 01 00:18:29
  TRACK 21 AUDIO
    TITLE "0:"
    INDEX 01 00:19:48
  TRACK 22 AUDIO
    TITLE "10:cjc034_03063"
    INDEX 01 00:20:32
  TRACK 23 AUDIO
    TITLE "0:"
    INDEX 01 00:21:58
  TRACK 24 AUDIO
    TITLE "9:cjc034_03064"
    INDEX 01 00:21:62
  TRACK 25 AUDIO
    TITLE "0:"
    INDEX 01 00:22:60
  TRACK 26 AUDIO
    TITLE "11:cjc034_03065"
    INDEX 01 00:24:20
  TRACK 27 AUDIO
    TITLE "0:"
    INDEX 01 00:25:74
  TRACK 28 AUDIO
    TITLE "10:cjc034_03066"
    INDEX 01 00:27:00
  TRACK 29 AUDIO
    TITLE "0:"
    INDEX 01 00:28:70
  TRACK 30 AUDIO
    TITLE "9:cjc034_03067"
    INDEX 01 00:29:05
  TRACK 31 AUDIO
    TITLE "0:"
    INDEX 01 00:30:18
  TRACK 32 AUDIO
    TITLE "10:cjc034_03068"
    INDEX 01 00:30:71
  TRACK 33 AUDIO
    TITLE "0:"
    INDEX 01 00:32:17
  TRACK 34 AUDIO
    TITLE "9:cjc034_03069"
    INDEX 01 00:32:19
  TRACK 35 AUDIO
    TITLE "0:"
    INDEX 01 00:33:44
  TRACK 36 AUDIO
    TITLE "10:cjc034_03070"
    INDEX 01 00:34:26
  TRACK 37 AUDIO
    TITLE "0:"
    INDEX 01 00:35:39
  TRACK 38 AUDIO
    TITLE "9:cjc034_03071"
    INDEX 01 00:35:41
  TRACK 39 AUDIO
    TITLE "0:"
    INDEX 01 00:37:20
  TRACK 40 AUDIO
    TITLE "10:cjc034_03072"
    INDEX 01 00:37:73
  TRACK 41 AUDIO
    TITLE "0:"
    INDEX 01 00:38:71
  TRACK 42 AUDIO
    TITLE "9:cjc034_03073"
    INDEX 01 00:39:00
  TRACK 43 AUDIO
    TITLE "0:"
    INDEX 01 00:40:01
  TRACK 44 AUDIO
    TITLE "10:cjc034_03074"
    INDEX 01 00:40:58
  TRACK 45 AUDIO
    TITLE "0:"
    INDEX 01 00:43:13
  TRACK 46 AUDIO
    TITLE "9:cjc034_03075"
    INDEX 01 00:43:17
  TRACK 47 AUDIO
    TITLE "0:"
    INDEX 01 00:44:32
  TRACK 48 AUDIO
    TITLE "10:cjc034_03076"
    INDEX 01 00:45:14
  TRACK 49 AUDIO
    TITLE "0:"
    INDEX 01 00:47:30
  TRACK 50 AUDIO
    TITLE "9:cjc034_03077"
    INDEX 01 00:47:34
  TRACK 51 AUDIO
    TITLE "0:"
    INDEX 01 00:48:46
  TRACK 52 AUDIO
    TITLE "10:cjc034_03078"
    INDEX 01 00:49:33
  TRACK 53 AUDIO
    TITLE "0:"
    INDEX 01 00:50:44
  TRACK 54 AUDIO
    TITLE "9:cjc034_03079"
    INDEX 01 00:50:50
  TRACK 55 AUDIO
    TITLE "0:"
    INDEX 01 00:51:67
  TRACK 56 AUDIO
    TITLE "10:cjc034_03080"
    INDEX 01 00:52:49
  TRACK 57 AUDIO
    TITLE "0:"
    INDEX 01 00:53:49
  TRACK 58 AUDIO
    TITLE "9:cjc034_03081"
    INDEX 01 00:53:55
  TRACK 59 AUDIO
    TITLE "0:"
    INDEX 01 00:54:70
  TRACK 60 AUDIO
    TITLE "10:cjc034_03082"
    INDEX 01 00:55:51
  TRACK 61 AUDIO
    TITLE "0:"
    INDEX 01 00:56:55
  TRACK 62 AUDIO
    TITLE "9:cjc034_03083"
    INDEX 01 00:56:57
  TRACK 63 AUDIO
    TITLE "0:"
    INDEX 01 00:58:01
